Coordinates
version=1
nRows=20
nColumns=34
inDegrees=yes

Units are S.I. units (second, meters, Newtons, ...)
If the header above contains a line with 'inDegrees', this indicates whether rotational values are in degrees (yes) or radians (no).

endheader
time	pelvis_tilt	pelvis_list	pelvis_rotation	pelvis_tx	pelvis_ty	pelvis_tz	hip_flexion_r	hip_adduction_r	hip_rotation_r	knee_angle_r	ankle_angle_r	subtalar_angle_r	mtp_angle_r	hip_flexion_l	hip_adduction_l	hip_rotation_l	knee_angle_l	ankle_angle_l	subtalar_angle_l	mtp_angle_l	lumbar_extension	lumbar_bending	lumbar_rotation	arm_flex_r	arm_add_r	arm_rot_r	elbow_flex_r	pro_sup_r	arm_flex_l	arm_add_l	arm_rot_l	elbow_flex_l	pro_sup_l
      3.42083330	     -7.63845855	     -8.41282507	    392.90621159	    -12.85213631	      1.45087150	      1.39359965	     23.34993632	    -13.38683177	    -24.29945197	     17.38138989	      7.18919271	      7.61573775	      0.00000000	     22.72443544	      8.78870412	     22.25873036	     28.54462188	      0.78951588	     -5.14037287	      0.00000000	    -12.47365876	      4.61988982	    -14.84165336	    -22.42743138	    207.84534193	   -146.93044500	     66.10543437	     85.93841839	   -196.51780062	    -16.42721151	   -249.54646330	     33.11438802	     59.89487227
      3.42500000	     -7.96882810	     -8.29505500	    391.61293898	    -12.86016891	      1.44965759	      1.39675515	     24.80591475	    -13.56214416	    -23.00722791	     18.00226344	      6.67518468	      7.99401045	      0.00000000	     23.74379386	      8.99509767	     21.11927884	     29.41182629	      0.64063730	     -5.77088713	      0.00000000	    -13.39768003	      4.30701396	    -13.08410092	    -24.02918742	    207.15907146	   -153.36263450	     70.60393573	     86.41591809	   -197.11970349	    -16.09586116	   -253.08692983	     32.59663174	     59.71494481
      3.42916670	     -8.26140158	     -8.15630925	    390.27030429	    -12.86917590	      1.44842622	      1.40011190	     26.36249973	    -13.69739504	    -21.66421931	     18.65278679	      6.10645693	      8.32572507	      0.00000000	     24.81955343	      9.15584922	     19.88866948	     30.31640803	      0.49794140	     -6.28971367	      0.00000000	    -14.36520154	      3.99925148	    -11.38374720	    -24.58921103	    206.71982997	   -156.82417203	     73.32915723	     86.96778475	   -197.60585705	    -15.66878353	   -256.21265714	     31.84417084	     59.50692431
      3.43333330	     -8.49847908	     -8.02172493	    388.95732273	    -12.87840219	      1.44723309	      1.40344903	     27.93563518	    -13.77459473	    -20.39058109	     19.32527201	      5.43622401	      8.65949285	      0.00000000	     25.87927518	      9.21841794	     18.60594735	     31.18922639	      0.38777153	     -6.68213358	      0.00000000	    -15.30732982	      3.75758042	     -9.85818947	    -24.64909891	    206.44059234	   -158.55506699	     74.43012330	     87.59641255	   -198.10099832	    -15.34986127	   -259.08233534	     31.01343512	     59.25627386
      3.43750000	     -8.66071228	     -7.84606681	    387.76172299	    -12.88712012	      1.44616243	      1.40651701	     29.39706338	    -13.87475656	    -19.39278410	     20.01050623	      4.88878495	      9.20916961	      0.00000000	     26.80921972	      9.24288033	     17.36614633	     31.97958110	      0.21750710	     -7.04369206	      0.00000000	    -16.27341820	      3.53589597	     -8.72320860	    -24.36229962	    206.22229441	   -159.18311013	     74.18686380	     87.69725663	   -198.02021979	    -15.20149354	   -259.73168245	     30.71322488	     59.18208509
      3.44166670	     -8.75836579	     -7.66826139	    386.63772616	    -12.89459878	      1.44528128	      1.40939641	     30.67936379	    -13.86173130	    -18.40449718	     20.56208643	      4.27919752	      9.54819537	      0.00000000	     27.57946163	      9.18030423	     16.22341828	     32.67357120	      0.21291665	     -7.19318799	      0.00000000	    -17.08529068	      3.28844158	     -7.88810182	    -24.38459572	    206.07956233	   -159.30629434	     73.41060057	     87.79336121	   -198.01501658	    -15.17616659	   -260.40278558	     30.29153254	     59.07165749
      3.44583330	     -8.66761557	     -7.49486715	    385.73716165	    -12.90076082	      1.44470642	      1.41164772	     31.55292618	    -13.76427034	    -17.56671947	     20.94375289	      3.58899839	      9.59423287	      0.00000000	     28.01731082	      9.02106194	     15.20952569	     33.23105625	      0.40360397	     -7.19291599	      0.00000000	    -17.89050262	      3.20330936	     -6.84026237	    -23.48442533	    206.22712133	   -157.55528802	     71.68007095	     88.31522443	   -198.64653333	    -15.11104770	   -263.03162718	     29.98108337	     58.78240173
      3.45000000	     -8.61127520	     -7.30002547	    384.94133226	    -12.90534512	      1.44399370	      1.41358881	     32.30373687	    -13.70694983	    -16.89725592	     21.32544310	      3.14697323	      9.75909261	      0.00000000	     28.30548433	      8.86272453	     14.28079554	     33.58467636	      0.59847794	     -7.18718565	      0.00000000	    -18.36418142	      2.93548251	     -6.54523244	    -23.74397470	    206.28068283	   -157.01748867	     70.35900832	     88.34180535	   -198.72113358	    -15.24257546	   -263.18725926	     30.19917759	     58.86700462
      3.45416670	     -8.40045271	     -7.16524794	    384.28273384	    -12.90882086	      1.44340955	      1.41510456	     32.69071811	    -13.50156272	    -16.28859033	     21.51962974	      2.64091736	      9.66039377	      0.00000000	     28.36814322	      8.61680223	     13.57984824	     33.86848758	      0.91211542	     -7.05761599	      0.00000000	    -18.88011499	      2.91522789	     -6.15532537	    -23.24078836	    206.30955367	   -155.15579970	     68.51316932	     88.35573330	   -198.59027227	    -15.70519921	   -263.44973008	     30.84405542	     59.13970597
      3.45833330	     -8.08589404	     -6.98011353	    383.75563912	    -12.91124853	      1.44298282	      1.41627229	     32.81603961	    -13.34625591	    -15.83095064	     21.72834530	      2.35062732	      9.63635299	      0.00000000	     28.18274174	      8.38926116	     12.95307249	     33.95735677	      1.08439738	     -7.01985350	      0.00000000	    -19.27163766	      2.79686841	     -5.94817608	    -22.88351782	    206.68480295	   -152.85967261	     67.18556814	     88.24533006	   -198.54838886	    -16.20023443	   -263.73748277	     31.86340357	     59.56100128
      3.46250000	     -7.68014588	     -6.79084631	    383.33703489	    -12.91297163	      1.44276946	      1.41715598	     32.72119270	    -13.18151496	    -15.43538208	     21.88836210	      2.13124734	      9.50708570	      0.00000000	     27.84026926	      8.17802493	     12.48313162	     33.93484549	      1.22640005	     -7.03086329	      0.00000000	    -19.56321805	      2.65434929	     -5.86306245	    -22.66244647	    207.20263626	   -150.59846064	     66.43563541	     88.00280287	   -198.50234023	    -16.79453359	   -264.09220413	     33.15622213	     60.09596511
      3.46666670	     -7.18884255	     -6.58763900	    382.98886856	    -12.91430053	      1.44258196	      1.41784723	     32.48082411	    -13.01659979	    -15.03490498	     22.06805106	      2.00719395	      9.29389828	      0.00000000	     27.38332902	      7.99233391	     12.08802306	     33.84570430	      1.34741026	     -7.10151327	      0.00000000	    -19.75036881	      2.46922387	     -5.85981744	    -22.61168318	    207.89062975	   -148.47149204	     66.34961438	     87.71567413	   -198.47435639	    -17.50520003	   -264.47379029	     34.80115390	     60.68891051
      3.47083330	     -6.61960190	     -6.36981286	    382.69265062	    -12.91546205	      1.44246830	      1.41843074	     32.12789207	    -12.85671018	    -14.65742737	     22.23985970	      1.92438933	      9.02757797	      0.00000000	     26.81491117	      7.82231462	     11.76155378	     33.67942208	      1.38684362	     -7.19102231	      0.00000000	    -19.85497523	      2.24751704	     -5.87862295	    -22.64243010	    208.73883899	   -146.47316984	     66.85103835	     87.43895969	   -198.46860375	    -18.36399190	   -264.89840148	     36.80777372	     61.31350475
      3.47500000	     -5.99057083	     -6.16778143	    382.41840275	    -12.91674960	      1.44216653	      1.41899592	     31.73196372	    -12.66943124	    -14.28955525	     22.42554221	      1.87171132	      8.76142955	      0.00000000	     26.17847212	      7.65240863	     11.50532298	     33.49909072	      1.42787935	     -7.31335534	      0.00000000	    -19.85562173	      1.98971410	     -5.82993229	    -22.69437716	    209.79729260	   -144.44948481	     67.91187347	     87.13050243	   -198.44049068	    -19.38409590	   -265.49336329	     39.31655555	     62.07556501
      3.47916670	     -5.23546897	     -5.88370368	    382.21627852	    -12.91818054	      1.44233120	      1.41939375	     31.20172060	    -12.57493239	    -14.00259403	     22.64962389	      1.83035751	      8.50586502	      0.00000000	     25.37132159	      7.54091550	     11.27153958	     33.31243987	      1.39802311	     -7.41483659	      0.00000000	    -19.88382306	      1.82896591	     -5.35447503	    -21.84694533	    210.95933554	   -141.06037558	     68.96633632	     85.60763837	   -199.08314754	    -20.84606892	   -267.85331732	     42.46663917	     65.12047085
      3.48333330	     -4.53521386	     -5.57719181	    381.98591371	    -12.91980407	      1.44197057	      1.42003952	     30.70166878	    -12.46254858	    -13.51595106	     22.77134758	      1.69573920	      8.08444519	      0.00000000	     24.52079803	      7.47333520	     11.09093063	     33.04806483	      1.32303780	     -7.53832354	      0.00000000	    -19.70179720	      1.26209468	     -5.37158993	    -22.52271033	    212.85519735	   -140.01205530	     71.88758503	     85.54749058	   -199.03343110	    -21.98826651	   -267.89722134	     45.55886585	     65.71265975
      3.48750000	     -3.83907491	     -5.31684091	    381.80230701	    -12.92169225	      1.44150796	      1.42058676	     30.28516747	    -12.38063707	    -13.11971743	     23.04354194	      1.71663416	      7.75966077	      0.00000000	     23.72822696	      7.42835793	     11.06101680	     32.96076011	      1.42608863	     -7.64288159	      0.00000000	    -19.42940217	      0.79475300	     -5.27758034	    -23.08040683	    214.82066379	   -138.73072895	     75.26242030	     85.53138201	   -198.88046077	    -23.58665756	   -268.19028109	     49.69112064	     66.45593820
      3.49166670	     -3.14668639	     -5.02555361	    381.63458626	    -12.92380473	      1.44090335	      1.42111329	     29.83289373	    -12.34478550	    -12.75024725	     23.26116208	      1.66184585	      7.42363793	      0.00000000	     22.88929626	      7.42942964	     11.04619430	     32.90510404	      1.50346547	     -7.74940817	      0.00000000	    -19.11612854	      0.27341871	     -5.11687115	    -23.62274641	    217.05345515	   -137.59696933	     79.19701840	     85.55625518	   -198.74112584	    -25.40995078	   -268.62543114	     54.35057975	     67.31574991
      3.49583330	     -2.49288011	     -4.75801940	    381.47138754	    -12.92599084	      1.44024198	      1.42165881	     29.40536745	    -12.30346145	    -12.35720291	     23.46823169	      1.60525254	      7.11053046	      0.00000000	     22.08209560	      7.43991048	     11.10099803	     32.92239793	      1.57344630	     -7.85097412	      0.00000000	    -18.75307721	     -0.28762327	     -4.91001206	    -24.18909578	    219.58922965	   -136.77151506	     83.70820823	     85.62616998	   -198.56805717	    -27.35352223	   -269.08645153	     59.37539431	     68.23423038
      3.50000000	     -1.92614169	     -4.50290228	    381.34021396	    -12.92811715	      1.43968726	      1.42211932	     29.03077505	    -12.30345438	    -11.96547837	     23.69018883	      1.60785458	      6.77524230	      0.00000000	     21.39183565	      7.50423039	     11.20160935	     33.08397121	      1.83591577	     -8.01391954	      0.00000000	    -18.34889160	     -0.90187240	     -4.69368034	    -24.75665160	    222.37247440	   -136.31132522	     88.70560295	     85.72638536	   -198.32574730	    -29.32953586	   -269.50219322	     64.71861791	     69.25257006
